# xmcd
#
# Track frame offsets:
#	183
#	23388
#	37640
#	60813
#	80805
#	116163
#	132145
#	162720
#	176073
#	208383
#	221873
#	252103
#
# Disc length: 3525 seconds
#
# Revision: 1
# Processed by: cddbd v1.4PL0 Copyright (c) Steve Scherf et al.
# Submitted via: audiograbber 1.81.03
#
DISCID=a50dc30c
DTITLE=Eddie Clearwater - The Chief
DYEAR=1992
DGENRE=Blues
TTITLE0=Blues for Breakfast
TTITLE1=Set it Out
TTITLE2=I don't know why
TTITLE3=You upset me baby
TTITLE4=Stormy Monday Blues
TTITLE5=That's my baby
TTITLE6=Chicago Daley Blues
TTITLE7=Boogie Woogie Baby
TTITLE8=I Came Up the Hard Way
TTITLE9=Miss You So
TTITLE10=Somebody Please Help Me
TTITLE11=Lay My Guitar Down
EXTD=
EXTT0=
EXTT1=
EXTT2=
EXTT3=
EXTT4=
EXTT5=
EXTT6=
EXTT7=
EXTT8=
EXTT9=
EXTT10=
EXTT11=
PLAYORDER=
